<?xml version="1.0" encoding="utf-8"?>
<svg xmlns="http://www.w3.org/2000/svg" height="128" width="128" viewBox="0 0 128 128">
  <g>
    <path id="path1" transform="rotate(0,64,64) translate(18.0999011331768,5) scale(3.68749956040972,3.68749956040972)  " fill="#000000" d="M14.995318,26.67752C14.931321,26.678527 14.86531,26.68753 14.800306,26.702514 14.277318,26.822539 13.951294,27.344546 14.072298,27.867528 14.193302,28.391549 14.715314,28.716533 15.237326,28.596536 15.761321,28.475534 16.086339,27.953528 15.966341,27.430545 15.860321,26.972535 15.44732,26.665526 14.995318,26.67752z M8.1812107,14.978447C8.3211967,14.979454 8.4602071,15.017449 8.584202,15.091455 8.6481983,15.130456 8.7082273,15.17846 8.7601997,15.234461 9.0282089,15.52145 8.957224,15.969481 8.9892074,16.362458 9.1952344,18.958482 11.172257,21.114499 13.731289,21.549499 14.151309,21.621491 14.645306,21.563506 14.936326,21.874513 14.969316,21.912507 15.000322,21.952487 15.027331,21.995486 15.195333,22.260501 15.191304,22.606513 15.007311,22.862495 14.695324,23.294505 14.0683,23.172494 13.542291,23.085519 10.292237,22.553502 7.7632047,19.843495 7.4532019,16.563478 7.4031826,16.023467 7.3202039,15.375453 7.7812101,15.091455 7.9031908,15.015465 8.0422012,14.978447 8.1812107,14.978447z M11.223252,14.833457C11.362262,14.833457 11.502249,14.871452 11.626274,14.945457 11.691247,14.984459 11.749262,15.033471 11.801265,15.088464 12.079254,15.387477 11.989256,15.863462 12.071259,16.264464 12.283267,17.29148 13.067277,18.127482 14.07831,18.401471 14.464303,18.507489 14.932328,18.455487 15.205312,18.748488 15.238333,18.785476 15.269308,18.825484 15.296317,18.867477 15.464319,19.134477 15.460322,19.47948 15.276327,19.736501 14.974321,20.153495 14.375312,20.057487 13.873289,19.941489 12.137269,19.545489 10.793253,18.105479 10.517247,16.344483 10.436253,15.830472 10.381229,15.21847 10.823252,14.946465 10.945263,14.869469 11.084243,14.83245 11.223252,14.833457z M23.651464,2.9293979C23.920451,2.9203949 24.19548,3.0013891 24.426471,3.1793993 24.952481,3.5844002 25.050473,4.341393 24.644462,4.868404L15.611324,16.352479C15.205312,16.880466 14.449318,16.978459 13.922301,16.57248 13.395285,16.166472 13.296285,15.410457 13.703303,14.884453L22.736442,3.3983944C22.964442,3.1024027,23.304443,2.941391,23.651464,2.9293979z M17.575345,0.00036475389C18.145362,-0.013612405,18.668382,0.37536688,18.802386,0.95038227L19.807408,5.304411 17.882358,7.669415 17.26336,4.9894071C17.214347,4.7813979,17.005361,4.6504159,16.797349,4.6983896L3.4761163,7.7754336C3.2681359,7.8234077,3.1381289,8.032424,3.1851269,8.2414093L7.4331819,26.63153C7.481187,26.840514,7.6921889,26.971528,7.899193,26.923522L21.219419,23.846509C21.427428,23.798505,21.559421,23.589519,21.510408,23.380504L19.287379,13.752458 21.159419,11.159425 24.741479,26.668517C24.893489,27.326541,24.479482,27.988532,23.82145,28.14054L7.4541785,31.968566C6.7971851,32.120544,6.1341802,31.706571,5.9821698,31.048547L0.031083503,5.2864056C-0.11991984,4.6284123,0.29408839,3.9663909,0.95108178,3.8143819L17.329339,0.031370616C17.411342,0.01238872,17.494352,0.0023788976,17.575345,0.00036475389z" />
  </g>
</svg>