<?xml version="1.0" encoding="utf-8"?>
<svg xmlns="http://www.w3.org/2000/svg" height="128" width="128" viewBox="0 0 128 128">
  <g>
    <path id="path1" transform="rotate(0,64,64) translate(5,6.6538425683975) scale(3.6875,3.6875)  " fill="#000000" d="M21.832001,24.424L21.832001,27.912998 26.218018,27.912998 26.218018,24.424z M13.757019,24.424L13.757019,27.912998 18.143005,27.912998 18.143005,24.424z M5.7820129,24.424L5.7820129,27.912998 10.167999,27.912998 10.167999,24.424z M1.8950195,6.3799964L3.8880005,6.3799964 4.1870117,17.745001 8.1750183,17.745001 8.1750183,13.956 16.050018,17.745001 16.149994,17.745001 16.149994,13.956 24.024994,17.745001 24.125,17.745001 24.125,13.956 32,17.745001 31.901001,17.745001 31.901001,31.103001 0,31.103001 0,17.745001 1.5950012,17.745001z M8.5740051,1.3959956C8.5740051,1.3959958 9.1719971,3.2899927 6.6800232,3.5889963 6.6800232,3.5889963 5.085022,3.6879953 4.2870178,4.4859993 4.2870178,4.4859993 3.9880066,4.7849952 3.8880005,4.4859993 3.8880005,4.4859993 3.9880066,3.0899958 6.480011,2.6919931 6.5800171,2.7909998 8.3740234,2.6919931 8.5740051,1.3959956z M5.5830078,0C5.5830078,-1.4470834E-07 6.8789978,1.4949948 4.5859985,2.6919931 4.5859985,2.6919931 3.1900024,3.2899927 2.6920166,4.3859931 2.6920166,4.3859931 2.5920105,4.7849952 2.2929993,4.4859993 2.2929993,4.4859993 1.8950195,3.1899942 4.0880127,1.8939967 4.1870117,1.9939953 5.882019,1.2959973 5.5830078,0z" />
  </g>
</svg>