<?xml version="1.0" encoding="utf-8"?>
<svg xmlns="http://www.w3.org/2000/svg" height="128" width="128" viewBox="0 0 128 128">
  <g>
    <path id="path1" transform="rotate(0,64,64) translate(5,6.84375) scale(3.6875,3.6875)  " fill="#000000" d="M26.600037,24.300003C28.600037,24.300003,30.200012,25.699997,30.200012,27.399994L30.200012,31 23,31 23,27.300003C23,25.599991,24.600037,24.300003,26.600037,24.300003z M15,24.300003C17,24.300003,18.600037,25.699997,18.600037,27.399994L18.600037,31 11.5,31 11.5,27.300003C11.400024,25.599991,13,24.300003,15,24.300003z M26.700012,18.5C28.100037,18.5 29.299988,19.699997 29.299988,21.099991 29.299988,22.5 28.100037,23.699997 26.700012,23.699997 25.299988,23.699997 24.100037,22.5 24.100037,21.099991 24.100037,19.699997 25.200012,18.5 26.700012,18.5z M15.100037,18.5C16.5,18.5 17.700012,19.699997 17.700012,21.099991 17.700012,22.5 16.5,23.699997 15.100037,23.699997 13.700012,23.699997 12.5,22.5 12.5,21.099991 12.5,19.699997 13.700012,18.5 15.100037,18.5z M5.5,6.8000031C4.1000366,6.8000031 3,7.8999939 3,9.3999939 3,10.800003 4.1000366,12 5.5,12 6.9000244,12 8.1000366,10.800003 8.1000366,9.3999939 8.1000366,7.8999939 7,6.8000031 5.5,6.8000031z M0,0L32,0 32,17.800003 9,17.800003 9,15C9,13.699997 7.4000244,12.599991 5.4000244,12.599991 3.4000244,12.599991 1.7999878,13.699997 1.7999878,15L1.7999878,17.800003 0,17.800003z" />
  </g>
</svg>