<?xml version="1.0" encoding="utf-8"?>
<svg xmlns="http://www.w3.org/2000/svg" height="128" width="128" viewBox="0 0 128 128">
  <g>
    <path id="path1" transform="rotate(0,64,64) translate(5.23230798437046,5) scale(3.68750021979214,3.68750021979214)  " fill="#000000" d="M24.746992,0.019004821C28.682994,0.019004672 31.874,3.2099739 31.874,7.1459473 31.874,10.263919 29.870004,12.909894 27.081004,13.87589 26.883006,13.943898 26.73698,14.122897 26.73698,14.331895L26.73698,24.228806C26.73698,24.35681,26.891979,24.420805,26.982005,24.329817L30.947,20.364838C31.128976,20.18384,31.439004,20.311844,31.439004,20.568846L31.439004,24.87681C31.439004,25.3198,31.260995,25.747807,30.947,26.061798L25.214002,31.796755C24.943006,32.067747,24.50398,32.067747,24.232007,31.796755L18.498002,26.061798C18.184007,25.747807,18.006,25.3198,18.006,24.87681L18.006,20.568846C18.006,20.311844,18.317003,20.18384,18.498002,20.364838L22.46199,24.329817C22.552993,24.420805,22.706985,24.35681,22.706985,24.228806L22.706985,14.319887C22.706985,14.110889 22.563003,13.930898 22.366012,13.861898 19.602006,12.881894 17.727008,10.246921 17.727008,7.1459473 17.727008,3.2099739 20.811996,0.019004672 24.746992,0.019004821z M7.1010083,0C7.2790168,0,7.4560188,0.068000256,7.5920051,0.20400093L13.323996,5.937949C13.63799,6.2509502,13.814992,6.6789559,13.814992,7.1219457L13.814992,11.42991C13.814992,11.685905,13.504995,11.81391,13.323996,11.633904L9.3600095,7.6689385C9.2690061,7.5779355,9.1140073,7.6419457,9.1140073,7.7699354L9.1140073,17.664862C9.1140073,17.874867 9.2600034,18.052859 9.4580005,18.121859 12.248007,19.087855 14.250997,21.732838 14.250997,24.850809 14.250997,28.785776 11.060996,31.976746 7.1260017,31.976746 3.1890236,31.976746 -4.4305125E-08,28.785776 0,24.850809 -4.4305125E-08,21.750828 1.9800095,19.115855 4.7440151,18.135866 4.9420131,18.065859 5.0850185,17.88686 5.0850185,17.677862L5.0850185,7.7699354C5.0850185,7.6419457,4.9309963,7.5779355,4.8400234,7.6689385L0.87600653,11.632912C0.69500678,11.81391,0.38500946,11.685905,0.38500928,11.42991L0.38500928,7.1219457C0.38500946,6.6789559,0.56301837,6.2509502,0.87600653,5.937949L6.610011,0.20400093C6.7459973,0.068000256,6.9229993,0,7.1010083,0z" />
  </g>
</svg>